<?xml version="1.0" encoding="UTF-8" standalone="no"?>
<!DOCTYPE svg PUBLIC "-//W3C//DTD SVG 20010904//EN"
              "http://www.w3.org/TR/2001/REC-SVG-20010904/DTD/svg10.dtd">

<svg xmlns="http://www.w3.org/2000/svg"
     width="2.77778in" height="4.16667in"
     viewBox="0 0 200 300">
  <path id="hatch"
        fill="none" stroke="black" stroke-width="1"
        d="M 20.00,20.00
           C 20.00,20.00 104.55,20.00 104.55,20.00M 15.64,30.00
           C 15.64,30.00 122.55,30.00 122.55,30.00M 17.09,40.00
           C 17.09,40.00 134.91,40.00 134.91,40.00M 22.00,50.00
           C 22.00,50.00 144.00,50.00 144.00,50.00M 30.00,60.00
           C 30.00,60.00 150.55,60.00 150.55,60.00M 40.00,70.00
           C 40.00,70.00 155.82,70.00 155.82,70.00M 47.64,80.00
           C 47.64,80.00 160.00,80.00 160.00,80.00M 52.18,90.00
           C 52.18,90.00 160.91,90.00 160.91,90.00M 54.73,100.00
           C 54.73,100.00 160.18,100.00 160.18,100.00M 56.00,110.00
           C 56.00,110.00 158.36,110.00 158.36,110.00M 55.82,120.00
           C 55.82,120.00 156.00,120.00 156.00,120.00M 54.55,130.00
           C 54.55,130.00 153.64,130.00 153.64,130.00M 53.27,140.00
           C 53.27,140.00 150.91,140.00 150.91,140.00M 50.91,150.00
           C 50.91,150.00 148.73,150.00 148.73,150.00M 48.91,160.00
           C 48.91,160.00 146.55,160.00 146.55,160.00M 46.73,170.00
           C 46.73,170.00 145.45,170.00 145.45,170.00M 43.45,180.00
           C 43.45,180.00 144.36,180.00 144.36,180.00M 41.45,190.00
           C 41.45,190.00 144.00,190.00 144.00,190.00M 39.45,200.00
           C 39.45,200.00 145.09,200.00 145.09,200.00M 38.36,210.00
           C 38.36,210.00 147.45,210.00 147.45,210.00M 40.00,220.00
           C 40.00,220.00 152.55,220.00 152.55,220.00M 43.82,230.00
           C 43.82,230.00 160.00,230.00 160.00,230.00M 49.45,240.00
           C 49.45,240.00 169.45,240.00 169.45,240.00M 56.00,250.00
           C 56.00,250.00 176.91,250.00 176.91,250.00M 65.09,260.00
           C 65.09,260.00 182.55,260.00 182.55,260.00M 77.27,270.00
           C 77.27,270.00 184.55,270.00 184.55,270.00M 95.27,280.00
           C 95.27,280.00 180.00,280.00 180.00,280.00" />
</svg>
