<?xml version="1.0" encoding="UTF-8" standalone="no"?>
<!DOCTYPE svg PUBLIC "-//W3C//DTD SVG 20010904//EN"
              "http://www.w3.org/TR/2001/REC-SVG-20010904/DTD/svg10.dtd">

<svg xmlns="http://www.w3.org/2000/svg"
     width="2.77778in" height="4.16667in"
     viewBox="0 0 200 300">
  <path id="hatch"
        fill="none" stroke="black" stroke-width="1"
        d="M 94.36,20.00
           C 94.36,20.00 105.27,20.00 105.27,20.00
             105.27,20.00 94.36,20.00 94.36,20.00 Z
           M 111.64,30.00
           C 111.64,30.00 88.36,29.82 88.36,30.00M 82.91,40.00
           C 82.91,40.00 117.09,40.00 117.09,40.00M 77.09,50.00
           C 77.09,50.00 122.91,50.00 122.91,50.00M 71.64,60.00
           C 71.64,60.00 128.18,60.00 128.18,60.00M 65.64,70.00
           C 65.64,70.00 134.18,70.00 134.18,70.00M 60.00,80.00
           C 60.00,80.00 140.00,80.00 140.00,80.00M 54.18,90.00
           C 54.18,90.18 145.64,90.00 145.64,90.00M 151.45,100.00
           C 151.45,100.00 48.36,100.00 48.36,100.00M 42.91,110.00
           C 42.91,110.00 156.91,110.00 156.91,110.00M 37.09,120.00
           C 37.09,120.00 162.91,120.00 162.91,120.00M 31.64,130.00
           C 31.64,130.00 168.36,130.00 168.36,130.00M 25.64,140.00
           C 25.64,140.00 174.00,140.00 174.00,140.00M 20.00,150.00
           C 20.00,150.00 180.00,150.00 180.00,150.00M 25.64,160.00
           C 25.64,160.00 174.18,160.00 174.18,160.00M 31.64,170.00
           C 31.64,170.00 168.36,170.00 168.36,170.00M 36.91,180.00
           C 36.91,180.00 162.73,180.00 162.73,180.00M 42.91,190.00
           C 42.91,190.00 156.91,190.00 156.91,190.00M 48.36,200.00
           C 48.36,200.00 151.45,200.00 151.45,200.00M 54.36,210.00
           C 54.36,210.00 145.64,210.00 145.64,210.00M 60.00,220.00
           C 60.00,220.00 140.00,220.00 140.00,220.00M 65.64,230.00
           C 65.64,230.00 134.18,230.00 134.18,230.00M 71.64,240.00
           C 71.64,240.00 128.18,240.00 128.18,240.00M 77.09,250.00
           C 77.09,250.00 122.55,250.00 122.55,250.00M 82.91,260.00
           C 82.91,260.00 117.09,260.00 117.09,260.00M 88.18,270.00
           C 88.18,270.00 111.64,270.00 111.64,270.00M 94.36,280.00
           C 94.36,280.00 105.64,280.00 105.64,280.00" />
</svg>
