<?xml version="1.0" encoding="UTF-8" standalone="no"?>
<!DOCTYPE svg PUBLIC "-//W3C//DTD SVG 20010904//EN"
              "http://www.w3.org/TR/2001/REC-SVG-20010904/DTD/svg10.dtd">

<svg class="card" xmlns="http://www.w3.org/2000/svg"
     width="2.77778in" height="4.16667in"
     viewBox="0 0 200 300">
  <path id="hatch"
        fill="none" stroke="black" stroke-width="1"
        d="M 60.73,20.00
           C 60.73,20.00 138.73,20.00 138.73,20.00M 48.91,30.00
           C 48.91,30.00 151.09,30.00 151.09,30.00M 41.82,40.00
           C 41.82,40.00 158.00,40.00 158.00,40.00M 36.91,50.00
           C 36.91,50.00 163.64,50.00 163.64,50.00M 33.09,60.00
           C 33.09,60.00 166.73,60.00 166.73,60.00M 31.09,70.00
           C 31.09,70.00 168.18,70.00 168.18,70.00M 30.00,80.00
           C 30.00,80.00 170.00,80.00 170.00,80.00M 30.00,90.00
           C 30.00,90.00 170.00,90.00 170.00,90.00M 30.00,100.00
           C 30.00,100.00 170.00,100.00 170.00,100.00M 30.00,110.00
           C 30.00,110.36 169.82,110.00 169.82,110.00M 30.00,120.00
           C 30.00,120.00 170.00,120.00 170.00,120.00M 30.00,130.00
           C 29.82,130.00 170.00,130.00 170.00,130.00M 30.00,140.00
           C 30.00,140.00 170.00,140.00 170.00,140.00M 30.00,150.00
           C 30.00,150.00 170.00,150.00 170.00,150.00M 30.00,160.00
           C 30.00,160.00 170.00,160.00 170.00,160.00M 30.00,170.00
           C 30.00,170.00 170.00,170.00 170.00,170.00M 30.00,180.00
           C 30.00,180.00 170.00,180.00 170.00,180.00M 30.00,190.00
           C 30.00,190.00 170.00,190.00 170.00,190.00M 30.00,200.00
           C 30.00,200.00 170.00,200.00 170.00,200.00M 30.00,210.00
           C 30.18,210.00 170.00,210.00 170.00,210.00M 30.00,220.00
           C 30.00,220.00 170.00,220.00 170.00,220.00M 31.09,230.00
           C 31.09,230.00 168.55,230.00 168.55,230.00M 33.27,240.00
           C 33.27,240.00 166.73,240.00 166.73,240.00M 36.73,250.00
           C 36.73,250.00 163.27,250.00 163.27,250.00M 41.64,260.00
           C 41.64,260.00 158.36,260.00 158.36,260.00M 49.27,270.00
           C 49.27,270.00 150.55,270.00 150.55,270.00M 61.64,280.00
           C 61.64,280.00 138.55,280.00 138.55,280.00" />
</svg>
